<svg width="312" height="312" viewBox="0 0 312 312" fill="none" xmlns="http://www.w3.org/2000/svg">
<mask id="mask0_1271_5637" style="mask-type:alpha" maskUnits="userSpaceOnUse" x="0" y="0" width="312" height="312">
<rect width="312" height="312" rx="40" fill="#C4C4C4"/>
</mask>
<g mask="url(#mask0_1271_5637)">
<path d="M81.3379 133.762C59.7327 138.092 21.9997 155.563 6.64108 175.567M101.818 160.856C90.7107 162.742 58.9392 172.484 35.5721 192.483M103.715 201.451C84.2497 205.902 50.4075 217.964 26.4748 238.933" stroke="#FCAC12" stroke-width="6" stroke-linecap="round" stroke-linejoin="round"/>
<g style="mix-blend-mode:overlay">
<path d="M81.3379 133.762C59.7327 138.092 21.9997 155.563 6.64108 175.567M101.818 160.856C90.7107 162.742 58.9392 172.484 35.5721 192.483M103.715 201.451C84.2497 205.902 50.4075 217.964 26.4748 238.933" stroke="url(#paint0_linear_1271_5637)" stroke-opacity="0.32" stroke-width="6" stroke-linecap="round" stroke-linejoin="round"/>
</g>
<path d="M118.647 216.495C118.802 180.14 112.15 137.319 105.52 116.304C104.277 112.363 105.801 107.94 109.495 106.089C174.297 73.6122 251.986 77.161 286.135 86.439C288.789 87.1602 290.772 89.2968 291.395 91.9762C297.559 118.465 298.454 146.382 296.819 186.13C296.655 190.116 293.551 193.364 289.58 193.746C219.446 200.504 195.591 206.845 128.971 224.589C123.744 225.981 118.624 221.905 118.647 216.495Z" fill="#EEE5FF"/>
<g style="mix-blend-mode:soft-light">
<path d="M118.647 216.495C118.802 180.14 112.15 137.319 105.52 116.304C104.277 112.363 105.801 107.94 109.495 106.089C174.297 73.6122 251.986 77.161 286.135 86.439C288.789 87.1602 290.772 89.2968 291.395 91.9762C297.559 118.465 298.454 146.382 296.819 186.13C296.655 190.116 293.551 193.364 289.58 193.746C219.446 200.504 195.591 206.845 128.971 224.589C123.744 225.981 118.624 221.905 118.647 216.495Z" fill="url(#paint1_linear_1271_5637)"/>
</g>
<path fill-rule="evenodd" clip-rule="evenodd" d="M166.593 141.912C180.1 147.261 192.999 152.368 205.888 156.216C216.564 159.404 260.923 127.561 290.305 92.9975C291.162 91.9887 291.429 90.5897 290.995 89.3391C290.607 88.2207 289.742 87.3928 288.608 87.0546C255.855 77.2916 175.9 72.7772 109.464 106.082C105.771 107.933 104.266 112.363 105.682 116.243C105.822 116.628 105.964 117.019 106.105 117.417C107.02 119.982 109.122 121.953 111.75 122.67C131.773 128.126 149.661 135.208 166.593 141.912Z" fill="#8F57FF"/>
<g style="mix-blend-mode:overlay" opacity="0.24">
<path fill-rule="evenodd" clip-rule="evenodd" d="M166.593 141.912C180.1 147.261 192.999 152.368 205.888 156.216C216.564 159.404 260.923 127.561 290.305 92.9975C291.162 91.9887 291.429 90.5897 290.995 89.3391C290.607 88.2207 289.742 87.3928 288.608 87.0546C255.855 77.2916 175.9 72.7772 109.464 106.082C105.771 107.933 104.266 112.363 105.682 116.243C105.822 116.628 105.964 117.019 106.105 117.417C107.02 119.982 109.122 121.953 111.75 122.67C131.773 128.126 149.661 135.208 166.593 141.912Z" fill="url(#paint2_linear_1271_5637)"/>
</g>
</g>
<defs>
<linearGradient id="paint0_linear_1271_5637" x1="107.966" y1="138.656" x2="-3.8334" y2="224.177" gradientUnits="userSpaceOnUse">
<stop stop-opacity="0.106061"/>
<stop offset="1"/>
</linearGradient>
<linearGradient id="paint1_linear_1271_5637" x1="240.96" y1="56.4055" x2="115.82" y2="316.885" gradientUnits="userSpaceOnUse">
<stop offset="0.169958" stop-color="white"/>
<stop offset="1" stop-color="white" stop-opacity="0"/>
</linearGradient>
<linearGradient id="paint2_linear_1271_5637" x1="228.989" y1="56.8487" x2="195.756" y2="155.926" gradientUnits="userSpaceOnUse">
<stop stop-color="white"/>
<stop offset="1" stop-color="white" stop-opacity="0"/>
</linearGradient>
</defs>
</svg>
