<svg width="32" height="32" viewBox="0 0 32 32" fill="none" xmlns="http://www.w3.org/2000/svg">
<path d="M12.59 25.49C12.4577 25.4895 12.3268 25.4627 12.2049 25.4112C12.0831 25.3597 11.9726 25.2845 11.88 25.19C11.6937 25.0026 11.5892 24.7492 11.5892 24.485C11.5892 24.2208 11.6937 23.9674 11.88 23.78L17.54 18.12C18.1018 17.5575 18.4174 16.795 18.4174 16C18.4174 15.205 18.1018 14.4425 17.54 13.88L11.88 8.22001C11.7162 8.02871 11.6306 7.78263 11.6403 7.53095C11.65 7.27928 11.7543 7.04054 11.9324 6.86244C12.1105 6.68435 12.3493 6.58002 12.6009 6.5703C12.8526 6.56057 13.0987 6.64618 13.29 6.81001L19 12.46C19.4656 12.9245 19.8351 13.4762 20.0871 14.0837C20.3392 14.6911 20.4689 15.3423 20.4689 16C20.4689 16.6577 20.3392 17.3089 20.0871 17.9163C19.8351 18.5238 19.4656 19.0756 19 19.54L13.34 25.19C13.2427 25.2894 13.1258 25.3674 12.9966 25.4191C12.8675 25.4708 12.729 25.4949 12.59 25.49Z" fill="black"/>
</svg>
