<svg width="32" height="32" viewBox="0 0 32 32" fill="none" xmlns="http://www.w3.org/2000/svg">
<path d="M11.47 27C10.4798 27.0018 9.51137 26.7095 8.68747 26.1602C7.86358 25.6109 7.22134 24.8294 6.84216 23.9146C6.46299 22.9999 6.36396 21.9932 6.55763 21.0221C6.75129 20.051 7.22894 19.1593 7.93001 18.46L16.41 9.98001C16.9723 9.41642 17.7354 9.09928 18.5315 9.09834C19.3276 9.0974 20.0914 9.41275 20.655 9.97501C21.2186 10.5373 21.5357 11.3004 21.5367 12.0965C21.5376 12.8926 21.2223 13.6564 20.66 14.22L12.17 22.71C11.9826 22.8963 11.7292 23.0008 11.465 23.0008C11.2008 23.0008 10.9474 22.8963 10.76 22.71C10.6663 22.617 10.5919 22.5064 10.5411 22.3846C10.4903 22.2627 10.4642 22.132 10.4642 22C10.4642 21.868 10.4903 21.7373 10.5411 21.6154C10.5919 21.4936 10.6663 21.383 10.76 21.29L19.24 12.81C19.3337 12.717 19.4081 12.6064 19.4589 12.4846C19.5097 12.3627 19.5358 12.232 19.5358 12.1C19.5358 11.968 19.5097 11.8373 19.4589 11.7154C19.4081 11.5936 19.3337 11.483 19.24 11.39C19.0526 11.2038 18.7992 11.0992 18.535 11.0992C18.2708 11.0992 18.0174 11.2038 17.83 11.39L9.34001 19.83C8.77775 20.3936 8.4624 21.1575 8.46334 21.9535C8.46428 22.7496 8.78142 23.5128 9.34501 24.075C9.90859 24.6373 10.6725 24.9526 11.4685 24.9517C12.2646 24.9507 13.0277 24.6336 13.59 24.07L22.07 15.59C23.0089 14.6525 23.5368 13.3804 23.5378 12.0535C23.5387 10.7267 23.0125 9.45388 22.075 8.51501C21.1375 7.57614 19.8654 7.04817 18.5385 7.04723C17.2117 7.04629 15.9389 7.57247 15 8.51001L10.05 13.51C9.85871 13.6738 9.61263 13.7594 9.36095 13.7497C9.10928 13.74 8.87054 13.6357 8.69244 13.4576C8.51435 13.2795 8.41002 13.0407 8.4003 12.7891C8.39057 12.5374 8.47618 12.2913 8.64001 12.1L13.59 7.10001C14.9028 5.78719 16.6834 5.04965 18.54 5.04965C20.3966 5.04965 22.1772 5.78719 23.49 7.10001C24.8028 8.41283 25.5404 10.1934 25.5404 12.05C25.5404 13.9066 24.8028 15.6872 23.49 17L15 25.48C14.541 25.9537 13.9927 26.3319 13.3869 26.5927C12.781 26.8536 12.1296 26.992 11.47 27Z" fill="black"/>
</svg>
