<svg width="32" height="32" viewBox="0 0 32 32" fill="none" xmlns="http://www.w3.org/2000/svg">
<path d="M16 22C18.7614 22 21 19.7614 21 17C21 14.2386 18.7614 12 16 12C13.2386 12 11 14.2386 11 17C11 19.7614 13.2386 22 16 22Z" fill="black"/>
<path d="M25 8H24.24C24.0536 8.0013 23.8706 7.95049 23.7116 7.85331C23.5526 7.75612 23.4239 7.61644 23.34 7.45L23 6.76C22.5844 5.93053 21.9461 5.23307 21.1567 4.74563C20.3673 4.2582 19.4578 4.00003 18.53 4H13.47C12.5422 4.00003 11.6327 4.2582 10.8433 4.74563C10.0539 5.23307 9.41565 5.93053 9 6.76L8.66 7.45C8.57614 7.61644 8.44743 7.75612 8.28841 7.85331C8.12938 7.95049 7.94636 8.0013 7.76 8H7C5.67392 8 4.40215 8.52678 3.46447 9.46447C2.52678 10.4021 2 11.6739 2 13V23C2 24.3261 2.52678 25.5979 3.46447 26.5355C4.40215 27.4732 5.67392 28 7 28H25C26.3261 28 27.5979 27.4732 28.5355 26.5355C29.4732 25.5979 30 24.3261 30 23V13C30 11.6739 29.4732 10.4021 28.5355 9.46447C27.5979 8.52678 26.3261 8 25 8ZM16 24C14.6155 24 13.2622 23.5895 12.111 22.8203C10.9599 22.0511 10.0627 20.9579 9.53284 19.6788C9.00303 18.3997 8.86441 16.9922 9.1345 15.6344C9.4046 14.2765 10.0713 13.0292 11.0503 12.0503C12.0292 11.0713 13.2765 10.4046 14.6344 10.1345C15.9922 9.86441 17.3997 10.003 18.6788 10.5328C19.9579 11.0627 21.0511 11.9599 21.8203 13.111C22.5895 14.2622 23 15.6155 23 17C23 18.8565 22.2625 20.637 20.9497 21.9497C19.637 23.2625 17.8565 24 16 24ZM25 14C24.8022 14 24.6089 13.9414 24.4444 13.8315C24.28 13.7216 24.1518 13.5654 24.0761 13.3827C24.0004 13.2 23.9806 12.9989 24.0192 12.8049C24.0578 12.6109 24.153 12.4327 24.2929 12.2929C24.4327 12.153 24.6109 12.0578 24.8049 12.0192C24.9989 11.9806 25.2 12.0004 25.3827 12.0761C25.5654 12.1518 25.7216 12.28 25.8315 12.4444C25.9414 12.6089 26 12.8022 26 13C26 13.2652 25.8946 13.5196 25.7071 13.7071C25.5196 13.8946 25.2652 14 25 14Z" fill="black"/>
</svg>
