<svg width="32" height="32" viewBox="0 0 32 32" fill="none" xmlns="http://www.w3.org/2000/svg">
<path d="M23 28H9C7.67392 28 6.40215 27.4732 5.46447 26.5355C4.52678 25.5979 4 24.3261 4 23V9C4 7.67392 4.52678 6.40215 5.46447 5.46447C6.40215 4.52678 7.67392 4 9 4H23C24.3261 4 25.5979 4.52678 26.5355 5.46447C27.4732 6.40215 28 7.67392 28 9V23C28 24.3261 27.4732 25.5979 26.5355 26.5355C25.5979 27.4732 24.3261 28 23 28V28ZM9 6C8.20435 6 7.44129 6.31607 6.87868 6.87868C6.31607 7.44129 6 8.20435 6 9V23C6 23.7956 6.31607 24.5587 6.87868 25.1213C7.44129 25.6839 8.20435 26 9 26H23C23.7956 26 24.5587 25.6839 25.1213 25.1213C25.6839 24.5587 26 23.7956 26 23V9C26 8.20435 25.6839 7.44129 25.1213 6.87868C24.5587 6.31607 23.7956 6 23 6H9Z" fill="#7F3DFF"/>
</svg>
