<svg width="32" height="32" viewBox="0 0 32 32" fill="none" xmlns="http://www.w3.org/2000/svg">
<path d="M23 4H9C7.67392 4 6.40215 4.52678 5.46447 5.46447C4.52678 6.40215 4 7.67392 4 9V23C4 24.3261 4.52678 25.5979 5.46447 26.5355C6.40215 27.4732 7.67392 28 9 28H23C24.3261 28 25.5979 27.4732 26.5355 26.5355C27.4732 25.5979 28 24.3261 28 23V9C28 7.67392 27.4732 6.40215 26.5355 5.46447C25.5979 4.52678 24.3261 4 23 4V4ZM23.71 12.31L15.71 20.31C14.9903 21.0269 14.0158 21.4294 13 21.4294C11.9842 21.4294 11.0097 21.0269 10.29 20.31L8.29 18.31C8.10375 18.1226 7.99921 17.8692 7.99921 17.605C7.99921 17.3408 8.10375 17.0874 8.29 16.9C8.38296 16.8063 8.49356 16.7319 8.61542 16.6811C8.73728 16.6303 8.86799 16.6042 9 16.6042C9.13201 16.6042 9.26272 16.6303 9.38458 16.6811C9.50644 16.7319 9.61704 16.8063 9.71 16.9L11.71 18.9C12.0529 19.2407 12.5166 19.432 13 19.432C13.4834 19.432 13.9471 19.2407 14.29 18.9L22.29 10.9C22.383 10.8063 22.4936 10.7319 22.6154 10.6811C22.7373 10.6303 22.868 10.6042 23 10.6042C23.132 10.6042 23.2627 10.6303 23.3846 10.6811C23.5064 10.7319 23.617 10.8063 23.71 10.9C23.8052 10.9931 23.8809 11.1044 23.9326 11.2271C23.9843 11.3499 24.0109 11.4818 24.0109 11.615C24.0109 11.7482 23.9843 11.8801 23.9326 12.0029C23.8809 12.1256 23.8052 12.2369 23.71 12.33V12.31Z" fill="#7F3DFF"/>
</svg>
