<svg width="32" height="32" viewBox="0 0 32 32" fill="none" xmlns="http://www.w3.org/2000/svg">
<path d="M28 12V25C28 26.3261 27.4732 27.5979 26.5355 28.5355C25.5979 29.4732 24.3261 30 23 30H9C7.67392 30 6.40215 29.4732 5.46447 28.5355C4.52678 27.5979 4 26.3261 4 25V7C4 5.67392 4.52678 4.40215 5.46447 3.46447C6.40215 2.52678 7.67392 2 9 2H18V9C18 9.79565 18.3161 10.5587 18.8787 11.1213C19.4413 11.6839 20.2044 12 21 12H28Z" fill="#7F3DFF"/>
<path d="M27.91 9.99984H21C20.7348 9.99984 20.4804 9.89449 20.2929 9.70695C20.1054 9.51941 20 9.26506 20 8.99984V2.08984C21.1834 2.29152 22.2742 2.85791 23.12 3.70984L26.29 6.87984C27.1403 7.72681 27.7064 8.81708 27.91 9.99984Z" fill="#7F3DFF"/>
</svg>
