<svg width="32" height="32" viewBox="0 0 32 32" fill="none" xmlns="http://www.w3.org/2000/svg">
<path d="M23 16.28C22.4375 15.7182 21.675 15.4026 20.88 15.4026C20.085 15.4026 19.3225 15.7182 18.76 16.28L7 28C8.69 28 13.78 28 25 28C26.0072 27.997 26.99 27.6899 27.8198 27.1189C28.6495 26.5479 29.2874 25.7397 29.65 24.8C29.65 24.68 29.74 24.55 29.78 24.42L29.9 24C29.9338 23.8383 29.9572 23.6746 29.97 23.51C29.9753 23.4668 29.9753 23.4231 29.97 23.38C29.9747 23.3636 29.9747 23.3463 29.97 23.33L23 16.28Z" fill="black"/>
<path d="M30 8.51999C29.8803 7.27878 29.3011 6.12708 28.3761 5.29085C27.4511 4.45463 26.247 3.99423 25 3.99999H7C5.75304 3.99423 4.54893 4.45463 3.6239 5.29085C2.69887 6.12708 2.1197 7.27878 2 8.51999C1.98779 8.67976 1.98779 8.84023 2 8.99999V23C1.99005 23.1698 1.99005 23.3401 2 23.51C2.02368 23.6817 2.05706 23.852 2.1 24.02C2.45743 25.106 3.07544 26.088 3.9 26.88C4.16163 27.0921 4.44685 27.2733 4.75 27.42L17.32 14.86C17.7845 14.3944 18.3362 14.0249 18.9437 13.7729C19.5511 13.5208 20.2023 13.3911 20.86 13.3911C21.5177 13.3911 22.1689 13.5208 22.7763 13.7729C23.3838 14.0249 23.9355 14.3944 24.4 14.86L30 20.46V8.99999C30.0122 8.84023 30.0122 8.67976 30 8.51999ZM8 12C7.60444 12 7.21776 11.8827 6.88886 11.6629C6.55996 11.4432 6.30362 11.1308 6.15224 10.7654C6.00087 10.3999 5.96126 9.99777 6.03843 9.60981C6.1156 9.22185 6.30608 8.86548 6.58579 8.58578C6.86549 8.30607 7.22186 8.11559 7.60982 8.03842C7.99778 7.96125 8.39992 8.00086 8.76537 8.15223C9.13082 8.30361 9.44318 8.55995 9.66294 8.88885C9.8827 9.21775 10 9.60443 10 9.99999C10 10.5304 9.78929 11.0391 9.41421 11.4142C9.03914 11.7893 8.53043 12 8 12Z" fill="black"/>
</svg>
