<svg width="32" height="32" viewBox="0 0 32 32" fill="none" xmlns="http://www.w3.org/2000/svg">
<path d="M20.1301 17.9298V18.9298C20.1301 19.5865 20.0007 20.2366 19.7495 20.8433C19.4982 21.4499 19.1299 22.0011 18.6656 22.4654C18.2013 22.9297 17.6501 23.298 17.0435 23.5492C16.4369 23.8005 15.7867 23.9298 15.1301 23.9298H11.8701C11.8546 24.4767 11.69 25.009 11.3939 25.469C11.0977 25.929 10.6815 26.2993 10.1901 26.5398C9.78024 26.7446 9.32822 26.8508 8.87007 26.8498C8.19234 26.8539 7.53322 26.6283 7.00007 26.2098L3.29007 23.2998C2.92874 23.0194 2.63631 22.6601 2.43514 22.2493C2.23398 21.8386 2.12939 21.3872 2.12939 20.9298C2.12939 20.4725 2.23398 20.0211 2.43514 19.6104C2.63631 19.1996 2.92874 18.8403 3.29007 18.5598L7.00007 15.6498C7.44707 15.2931 7.98673 15.0716 8.55545 15.0113C9.12417 14.9511 9.69826 15.0547 10.2101 15.3098C10.8916 15.6358 11.4165 16.2182 11.6701 16.9298H19.1001C19.2339 16.9258 19.3672 16.9487 19.492 16.9972C19.6168 17.0456 19.7306 17.1187 19.8267 17.2119C19.9227 17.3052 19.9991 17.4168 20.0512 17.5401C20.1033 17.6634 20.1301 17.796 20.1301 17.9298Z" fill="#C6C6C6"/>
<path d="M29.8701 11.07C29.8702 11.5273 29.7657 11.9786 29.5647 12.3893C29.3636 12.8001 29.0713 13.1595 28.7101 13.44L25.0001 16.35C24.4595 16.77 23.7947 16.9986 23.1101 17C22.652 17.0009 22.2 16.8947 21.7901 16.69C21.1086 16.364 20.5837 15.7816 20.3301 15.07H12.8701C12.6049 15.07 12.3505 14.9646 12.163 14.7771C11.9755 14.5895 11.8701 14.3352 11.8701 14.07V13.07C11.8701 11.7439 12.3969 10.4721 13.3346 9.53442C14.2723 8.59674 15.544 8.06995 16.8701 8.06995H20.1301C20.1423 7.5109 20.3105 6.96638 20.6157 6.49784C20.9209 6.02929 21.351 5.65537 21.8574 5.41828C22.3638 5.18118 22.9264 5.09034 23.4817 5.15602C24.0371 5.22169 24.563 5.44126 25.0001 5.78995L28.7101 8.69995C29.0713 8.98045 29.3636 9.33981 29.5647 9.75057C29.7657 10.1613 29.8702 10.6126 29.8701 11.07Z" fill="#C6C6C6"/>
</svg>
